<mxfile host="app.diagrams.net" modified="2023-05-09T13:39:44.670Z" agent="Mozilla/5.0 (Macintosh; Intel Mac OS X 10_15_7) AppleWebKit/537.36 (KHTML, like Gecko) Chrome/112.0.0.0 Safari/537.36" etag="ox5is2rolL-drE6aFKJN" version="21.2.9" type="device">
  <diagram name="Page-1" id="b5b7bab2-c9e2-2cf4-8b2a-24fd1a2a6d21">
    <mxGraphModel dx="403" dy="795" grid="1" gridSize="10" guides="1" tooltips="1" connect="1" arrows="1" fold="1" page="1" pageScale="1" pageWidth="827" pageHeight="1169" background="none" math="0" shadow="0">
      <root>
        <mxCell id="0" />
        <mxCell id="1" parent="0" />
        <mxCell id="iJmK3isDiLZy_JNT2nU3-1" value="일반 회원" style="shape=umlActor;verticalLabelPosition=bottom;verticalAlign=top;html=1;outlineConnect=0;" parent="1" vertex="1">
          <mxGeometry x="860" y="149" width="30" height="60" as="geometry" />
        </mxCell>
        <mxCell id="iJmK3isDiLZy_JNT2nU3-2" value="" style="endArrow=none;html=1;rounded=0;" parent="1" edge="1">
          <mxGeometry width="50" height="50" relative="1" as="geometry">
            <mxPoint x="890" y="171" as="sourcePoint" />
            <mxPoint x="1010" y="169" as="targetPoint" />
          </mxGeometry>
        </mxCell>
        <mxCell id="iJmK3isDiLZy_JNT2nU3-4" value=":SearchUI" style="html=1;whiteSpace=wrap;" parent="1" vertex="1">
          <mxGeometry x="1010" y="141" width="110" height="50" as="geometry" />
        </mxCell>
        <mxCell id="iJmK3isDiLZy_JNT2nU3-6" value=":Search" style="html=1;whiteSpace=wrap;" parent="1" vertex="1">
          <mxGeometry x="1240" y="149" width="110" height="50" as="geometry" />
        </mxCell>
        <mxCell id="iJmK3isDiLZy_JNT2nU3-7" value="" style="endArrow=none;html=1;rounded=0;" parent="1" edge="1">
          <mxGeometry width="50" height="50" relative="1" as="geometry">
            <mxPoint x="1120" y="167" as="sourcePoint" />
            <mxPoint x="1240" y="165" as="targetPoint" />
          </mxGeometry>
        </mxCell>
        <mxCell id="iJmK3isDiLZy_JNT2nU3-8" value="회사 이름 검색" style="shape=umlFrame;whiteSpace=wrap;html=1;pointerEvents=0;width=90;height=30;" parent="1" vertex="1">
          <mxGeometry x="850" y="79" width="700" height="360" as="geometry" />
        </mxCell>
        <mxCell id="iJmK3isDiLZy_JNT2nU3-9" value=":Recruitment&amp;nbsp;" style="html=1;whiteSpace=wrap;" parent="1" vertex="1">
          <mxGeometry x="1240" y="329" width="110" height="50" as="geometry" />
        </mxCell>
        <mxCell id="iJmK3isDiLZy_JNT2nU3-10" value="" style="endArrow=none;html=1;rounded=0;exitX=0.5;exitY=0;exitDx=0;exitDy=0;entryX=0.5;entryY=1;entryDx=0;entryDy=0;" parent="1" source="iJmK3isDiLZy_JNT2nU3-9" target="iJmK3isDiLZy_JNT2nU3-6" edge="1">
          <mxGeometry width="50" height="50" relative="1" as="geometry">
            <mxPoint x="1120" y="329" as="sourcePoint" />
            <mxPoint x="1261" y="199" as="targetPoint" />
          </mxGeometry>
        </mxCell>
        <mxCell id="iJmK3isDiLZy_JNT2nU3-12" value="" style="endArrow=classic;html=1;rounded=0;" parent="1" edge="1">
          <mxGeometry width="50" height="50" relative="1" as="geometry">
            <mxPoint x="1090" y="319" as="sourcePoint" />
            <mxPoint x="1090" y="319" as="targetPoint" />
          </mxGeometry>
        </mxCell>
        <mxCell id="iJmK3isDiLZy_JNT2nU3-16" value="" style="endArrow=classic;html=1;rounded=0;" parent="1" edge="1">
          <mxGeometry width="50" height="50" relative="1" as="geometry">
            <mxPoint x="1280" y="224" as="sourcePoint" />
            <mxPoint x="1280" y="290" as="targetPoint" />
          </mxGeometry>
        </mxCell>
        <mxCell id="iJmK3isDiLZy_JNT2nU3-17" value="2.1.1 *[For companyName == input &amp;amp;&amp;amp; currentTime &amp;lt; deadLine]:&lt;br&gt;&amp;nbsp;getRecruitment()" style="text;html=1;align=center;verticalAlign=middle;resizable=0;points=[];autosize=1;strokeColor=none;fillColor=none;" parent="1" vertex="1">
          <mxGeometry x="910" y="234" width="370" height="40" as="geometry" />
        </mxCell>
        <mxCell id="iJmK3isDiLZy_JNT2nU3-18" value="" style="endArrow=classic;html=1;rounded=0;" parent="1" edge="1">
          <mxGeometry width="50" height="50" relative="1" as="geometry">
            <mxPoint x="1225" y="179" as="sourcePoint" />
            <mxPoint x="1140" y="179" as="targetPoint" />
            <Array as="points">
              <mxPoint x="1170" y="179" />
            </Array>
          </mxGeometry>
        </mxCell>
        <mxCell id="iJmK3isDiLZy_JNT2nU3-19" value="1 startInterface()" style="text;html=1;align=center;verticalAlign=middle;resizable=0;points=[];autosize=1;strokeColor=none;fillColor=none;" parent="1" vertex="1">
          <mxGeometry x="1130" y="179" width="110" height="30" as="geometry" />
        </mxCell>
        <mxCell id="iJmK3isDiLZy_JNT2nU3-20" value="" style="endArrow=classic;html=1;rounded=0;" parent="1" edge="1">
          <mxGeometry width="50" height="50" relative="1" as="geometry">
            <mxPoint x="910" y="159" as="sourcePoint" />
            <mxPoint x="995" y="159" as="targetPoint" />
            <Array as="points">
              <mxPoint x="940" y="159" />
            </Array>
          </mxGeometry>
        </mxCell>
        <mxCell id="iJmK3isDiLZy_JNT2nU3-21" value="2 searchRecruitmentByCompanyName()" style="text;html=1;align=center;verticalAlign=middle;resizable=0;points=[];autosize=1;strokeColor=none;fillColor=none;" parent="1" vertex="1">
          <mxGeometry x="845" y="111" width="240" height="30" as="geometry" />
        </mxCell>
        <mxCell id="iJmK3isDiLZy_JNT2nU3-22" value="2.1 showRecruitmentByCompanyName()" style="text;html=1;align=center;verticalAlign=middle;resizable=0;points=[];autosize=1;strokeColor=none;fillColor=none;" parent="1" vertex="1">
          <mxGeometry x="1080" y="119" width="240" height="30" as="geometry" />
        </mxCell>
        <mxCell id="iJmK3isDiLZy_JNT2nU3-23" value="" style="endArrow=classic;html=1;rounded=0;" parent="1" edge="1">
          <mxGeometry width="50" height="50" relative="1" as="geometry">
            <mxPoint x="1140" y="154" as="sourcePoint" />
            <mxPoint x="1225" y="154" as="targetPoint" />
            <Array as="points">
              <mxPoint x="1170" y="154" />
            </Array>
          </mxGeometry>
        </mxCell>
        <mxCell id="iJmK3isDiLZy_JNT2nU3-25" value="일반 회원" style="shape=umlActor;verticalLabelPosition=bottom;verticalAlign=top;html=1;outlineConnect=0;" parent="1" vertex="1">
          <mxGeometry x="850" y="590" width="30" height="60" as="geometry" />
        </mxCell>
        <mxCell id="iJmK3isDiLZy_JNT2nU3-26" value="" style="endArrow=none;html=1;rounded=0;" parent="1" edge="1">
          <mxGeometry width="50" height="50" relative="1" as="geometry">
            <mxPoint x="880" y="612" as="sourcePoint" />
            <mxPoint x="1000" y="610" as="targetPoint" />
          </mxGeometry>
        </mxCell>
        <mxCell id="iJmK3isDiLZy_JNT2nU3-27" value=":SearchUI" style="html=1;whiteSpace=wrap;" parent="1" vertex="1">
          <mxGeometry x="1000" y="582" width="110" height="50" as="geometry" />
        </mxCell>
        <mxCell id="iJmK3isDiLZy_JNT2nU3-28" value=":Search" style="html=1;whiteSpace=wrap;" parent="1" vertex="1">
          <mxGeometry x="1230" y="590" width="110" height="50" as="geometry" />
        </mxCell>
        <mxCell id="iJmK3isDiLZy_JNT2nU3-29" value="" style="endArrow=none;html=1;rounded=0;" parent="1" edge="1">
          <mxGeometry width="50" height="50" relative="1" as="geometry">
            <mxPoint x="1110" y="608" as="sourcePoint" />
            <mxPoint x="1230" y="606" as="targetPoint" />
          </mxGeometry>
        </mxCell>
        <mxCell id="iJmK3isDiLZy_JNT2nU3-30" value="업무 검색" style="shape=umlFrame;whiteSpace=wrap;html=1;pointerEvents=0;width=90;height=30;" parent="1" vertex="1">
          <mxGeometry x="840" y="520" width="700" height="360" as="geometry" />
        </mxCell>
        <mxCell id="iJmK3isDiLZy_JNT2nU3-31" value=":Recruitment&amp;nbsp;" style="html=1;whiteSpace=wrap;" parent="1" vertex="1">
          <mxGeometry x="1230" y="772.5" width="110" height="50" as="geometry" />
        </mxCell>
        <mxCell id="iJmK3isDiLZy_JNT2nU3-32" value="" style="endArrow=none;html=1;rounded=0;exitX=0.5;exitY=0;exitDx=0;exitDy=0;" parent="1" source="iJmK3isDiLZy_JNT2nU3-31" target="iJmK3isDiLZy_JNT2nU3-28" edge="1">
          <mxGeometry width="50" height="50" relative="1" as="geometry">
            <mxPoint x="1110" y="770" as="sourcePoint" />
            <mxPoint x="1251" y="640" as="targetPoint" />
          </mxGeometry>
        </mxCell>
        <mxCell id="iJmK3isDiLZy_JNT2nU3-33" value="" style="endArrow=classic;html=1;rounded=0;" parent="1" edge="1">
          <mxGeometry width="50" height="50" relative="1" as="geometry">
            <mxPoint x="1080" y="760" as="sourcePoint" />
            <mxPoint x="1080" y="760" as="targetPoint" />
          </mxGeometry>
        </mxCell>
        <mxCell id="iJmK3isDiLZy_JNT2nU3-34" value="" style="endArrow=classic;html=1;rounded=0;" parent="1" edge="1">
          <mxGeometry width="50" height="50" relative="1" as="geometry">
            <mxPoint x="1270" y="665" as="sourcePoint" />
            <mxPoint x="1270" y="750" as="targetPoint" />
          </mxGeometry>
        </mxCell>
        <mxCell id="iJmK3isDiLZy_JNT2nU3-36" value="" style="endArrow=classic;html=1;rounded=0;" parent="1" edge="1">
          <mxGeometry width="50" height="50" relative="1" as="geometry">
            <mxPoint x="1215" y="620" as="sourcePoint" />
            <mxPoint x="1130" y="620" as="targetPoint" />
            <Array as="points">
              <mxPoint x="1160" y="620" />
            </Array>
          </mxGeometry>
        </mxCell>
        <mxCell id="iJmK3isDiLZy_JNT2nU3-37" value="1 startInterface()" style="text;html=1;align=center;verticalAlign=middle;resizable=0;points=[];autosize=1;strokeColor=none;fillColor=none;" parent="1" vertex="1">
          <mxGeometry x="1120" y="620" width="110" height="30" as="geometry" />
        </mxCell>
        <mxCell id="iJmK3isDiLZy_JNT2nU3-38" value="" style="endArrow=classic;html=1;rounded=0;" parent="1" edge="1">
          <mxGeometry width="50" height="50" relative="1" as="geometry">
            <mxPoint x="900" y="600" as="sourcePoint" />
            <mxPoint x="985" y="600" as="targetPoint" />
            <Array as="points">
              <mxPoint x="930" y="600" />
            </Array>
          </mxGeometry>
        </mxCell>
        <mxCell id="iJmK3isDiLZy_JNT2nU3-39" value="2 searchRecruitmentByWork()" style="text;html=1;align=center;verticalAlign=middle;resizable=0;points=[];autosize=1;strokeColor=none;fillColor=none;" parent="1" vertex="1">
          <mxGeometry x="850" y="560" width="180" height="30" as="geometry" />
        </mxCell>
        <mxCell id="iJmK3isDiLZy_JNT2nU3-40" value="2.1 showRecruitmentByWork()" style="text;html=1;align=center;verticalAlign=middle;resizable=0;points=[];autosize=1;strokeColor=none;fillColor=none;" parent="1" vertex="1">
          <mxGeometry x="1085" y="560" width="190" height="30" as="geometry" />
        </mxCell>
        <mxCell id="iJmK3isDiLZy_JNT2nU3-41" value="" style="endArrow=classic;html=1;rounded=0;" parent="1" edge="1">
          <mxGeometry width="50" height="50" relative="1" as="geometry">
            <mxPoint x="1130" y="595" as="sourcePoint" />
            <mxPoint x="1215" y="595" as="targetPoint" />
            <Array as="points">
              <mxPoint x="1160" y="595" />
            </Array>
          </mxGeometry>
        </mxCell>
        <mxCell id="iJmK3isDiLZy_JNT2nU3-59" value="일반 회원" style="shape=umlActor;verticalLabelPosition=bottom;verticalAlign=top;html=1;outlineConnect=0;" parent="1" vertex="1">
          <mxGeometry x="840" y="1090" width="30" height="60" as="geometry" />
        </mxCell>
        <mxCell id="iJmK3isDiLZy_JNT2nU3-60" value="" style="endArrow=none;html=1;rounded=0;" parent="1" edge="1">
          <mxGeometry width="50" height="50" relative="1" as="geometry">
            <mxPoint x="870" y="1112" as="sourcePoint" />
            <mxPoint x="990" y="1110" as="targetPoint" />
          </mxGeometry>
        </mxCell>
        <mxCell id="iJmK3isDiLZy_JNT2nU3-61" value=":RecruitmentUI" style="html=1;whiteSpace=wrap;" parent="1" vertex="1">
          <mxGeometry x="990" y="1082" width="110" height="50" as="geometry" />
        </mxCell>
        <mxCell id="iJmK3isDiLZy_JNT2nU3-62" value=":RecruitmentDetail" style="html=1;whiteSpace=wrap;" parent="1" vertex="1">
          <mxGeometry x="1220" y="1090" width="110" height="50" as="geometry" />
        </mxCell>
        <mxCell id="iJmK3isDiLZy_JNT2nU3-63" value="" style="endArrow=none;html=1;rounded=0;" parent="1" edge="1">
          <mxGeometry width="50" height="50" relative="1" as="geometry">
            <mxPoint x="1100" y="1108" as="sourcePoint" />
            <mxPoint x="1220" y="1106" as="targetPoint" />
          </mxGeometry>
        </mxCell>
        <mxCell id="iJmK3isDiLZy_JNT2nU3-64" value="상세 정보" style="shape=umlFrame;whiteSpace=wrap;html=1;pointerEvents=0;width=90;height=30;" parent="1" vertex="1">
          <mxGeometry x="830" y="1020" width="700" height="360" as="geometry" />
        </mxCell>
        <mxCell id="iJmK3isDiLZy_JNT2nU3-65" value=":Recruitment&amp;nbsp;" style="html=1;whiteSpace=wrap;" parent="1" vertex="1">
          <mxGeometry x="1220" y="1270" width="110" height="50" as="geometry" />
        </mxCell>
        <mxCell id="iJmK3isDiLZy_JNT2nU3-66" value="" style="endArrow=none;html=1;rounded=0;exitX=0.5;exitY=0;exitDx=0;exitDy=0;entryX=0.5;entryY=1;entryDx=0;entryDy=0;" parent="1" source="iJmK3isDiLZy_JNT2nU3-65" target="iJmK3isDiLZy_JNT2nU3-62" edge="1">
          <mxGeometry width="50" height="50" relative="1" as="geometry">
            <mxPoint x="1100" y="1270" as="sourcePoint" />
            <mxPoint x="1241" y="1140" as="targetPoint" />
          </mxGeometry>
        </mxCell>
        <mxCell id="iJmK3isDiLZy_JNT2nU3-67" value="" style="endArrow=classic;html=1;rounded=0;" parent="1" edge="1">
          <mxGeometry width="50" height="50" relative="1" as="geometry">
            <mxPoint x="1190" y="1220" as="sourcePoint" />
            <mxPoint x="1190" y="1220" as="targetPoint" />
          </mxGeometry>
        </mxCell>
        <mxCell id="iJmK3isDiLZy_JNT2nU3-68" value="" style="endArrow=classic;html=1;rounded=0;" parent="1" edge="1">
          <mxGeometry width="50" height="50" relative="1" as="geometry">
            <mxPoint x="1250" y="1169" as="sourcePoint" />
            <mxPoint x="1250" y="1250" as="targetPoint" />
          </mxGeometry>
        </mxCell>
        <mxCell id="iJmK3isDiLZy_JNT2nU3-69" value="1 *[For all&amp;nbsp;Recruitments]: getRecruitment()" style="text;html=1;align=center;verticalAlign=middle;resizable=0;points=[];autosize=1;strokeColor=none;fillColor=none;" parent="1" vertex="1">
          <mxGeometry x="1010" y="1200" width="250" height="30" as="geometry" />
        </mxCell>
        <mxCell id="iJmK3isDiLZy_JNT2nU3-70" value="" style="endArrow=classic;html=1;rounded=0;" parent="1" edge="1">
          <mxGeometry width="50" height="50" relative="1" as="geometry">
            <mxPoint x="1205" y="1120" as="sourcePoint" />
            <mxPoint x="1120" y="1120" as="targetPoint" />
            <Array as="points">
              <mxPoint x="1150" y="1120" />
            </Array>
          </mxGeometry>
        </mxCell>
        <mxCell id="iJmK3isDiLZy_JNT2nU3-71" value="2 startInterface()" style="text;html=1;align=center;verticalAlign=middle;resizable=0;points=[];autosize=1;strokeColor=none;fillColor=none;" parent="1" vertex="1">
          <mxGeometry x="1110" y="1120" width="110" height="30" as="geometry" />
        </mxCell>
        <mxCell id="iJmK3isDiLZy_JNT2nU3-72" value="" style="endArrow=classic;html=1;rounded=0;" parent="1" edge="1">
          <mxGeometry width="50" height="50" relative="1" as="geometry">
            <mxPoint x="890" y="1100" as="sourcePoint" />
            <mxPoint x="975" y="1100" as="targetPoint" />
            <Array as="points">
              <mxPoint x="920" y="1100" />
            </Array>
          </mxGeometry>
        </mxCell>
        <mxCell id="iJmK3isDiLZy_JNT2nU3-73" value="3 selectRecruitment()" style="text;html=1;align=center;verticalAlign=middle;resizable=0;points=[];autosize=1;strokeColor=none;fillColor=none;" parent="1" vertex="1">
          <mxGeometry x="860" y="1060" width="140" height="30" as="geometry" />
        </mxCell>
        <mxCell id="iJmK3isDiLZy_JNT2nU3-74" value="3.1 showRecruitmentDetail()" style="text;html=1;align=center;verticalAlign=middle;resizable=0;points=[];autosize=1;strokeColor=none;fillColor=none;" parent="1" vertex="1">
          <mxGeometry x="1085" y="1060" width="170" height="30" as="geometry" />
        </mxCell>
        <mxCell id="iJmK3isDiLZy_JNT2nU3-75" value="" style="endArrow=classic;html=1;rounded=0;" parent="1" edge="1">
          <mxGeometry width="50" height="50" relative="1" as="geometry">
            <mxPoint x="1120" y="1095" as="sourcePoint" />
            <mxPoint x="1205" y="1095" as="targetPoint" />
            <Array as="points">
              <mxPoint x="1150" y="1095" />
            </Array>
          </mxGeometry>
        </mxCell>
        <mxCell id="iJmK3isDiLZy_JNT2nU3-76" value="3.1.1 getRecruitmentDetail()" style="text;html=1;align=center;verticalAlign=middle;resizable=0;points=[];autosize=1;strokeColor=none;fillColor=none;" parent="1" vertex="1">
          <mxGeometry x="1050" y="1180" width="170" height="30" as="geometry" />
        </mxCell>
        <mxCell id="iJmK3isDiLZy_JNT2nU3-77" value="일반 회원" style="shape=umlActor;verticalLabelPosition=bottom;verticalAlign=top;html=1;outlineConnect=0;" parent="1" vertex="1">
          <mxGeometry x="845" y="1530" width="30" height="60" as="geometry" />
        </mxCell>
        <mxCell id="iJmK3isDiLZy_JNT2nU3-78" value="" style="endArrow=none;html=1;rounded=0;" parent="1" edge="1">
          <mxGeometry width="50" height="50" relative="1" as="geometry">
            <mxPoint x="875" y="1552" as="sourcePoint" />
            <mxPoint x="995" y="1550" as="targetPoint" />
          </mxGeometry>
        </mxCell>
        <mxCell id="iJmK3isDiLZy_JNT2nU3-79" value=":ApplyUI" style="html=1;whiteSpace=wrap;" parent="1" vertex="1">
          <mxGeometry x="995" y="1522" width="110" height="50" as="geometry" />
        </mxCell>
        <mxCell id="iJmK3isDiLZy_JNT2nU3-80" value=":ApplyCompany" style="html=1;whiteSpace=wrap;" parent="1" vertex="1">
          <mxGeometry x="1225" y="1530" width="110" height="50" as="geometry" />
        </mxCell>
        <mxCell id="iJmK3isDiLZy_JNT2nU3-81" value="" style="endArrow=none;html=1;rounded=0;" parent="1" edge="1">
          <mxGeometry width="50" height="50" relative="1" as="geometry">
            <mxPoint x="1105" y="1548" as="sourcePoint" />
            <mxPoint x="1225" y="1546" as="targetPoint" />
          </mxGeometry>
        </mxCell>
        <mxCell id="iJmK3isDiLZy_JNT2nU3-82" value="지원" style="shape=umlFrame;whiteSpace=wrap;html=1;pointerEvents=0;width=90;height=30;" parent="1" vertex="1">
          <mxGeometry x="835" y="1460" width="700" height="360" as="geometry" />
        </mxCell>
        <mxCell id="iJmK3isDiLZy_JNT2nU3-83" value=":Recruitment&amp;nbsp;" style="html=1;whiteSpace=wrap;" parent="1" vertex="1">
          <mxGeometry x="1150" y="1720" width="110" height="50" as="geometry" />
        </mxCell>
        <mxCell id="iJmK3isDiLZy_JNT2nU3-84" value="" style="endArrow=none;html=1;rounded=0;exitX=0.5;exitY=0;exitDx=0;exitDy=0;entryX=0.5;entryY=1;entryDx=0;entryDy=0;" parent="1" source="iJmK3isDiLZy_JNT2nU3-83" target="iJmK3isDiLZy_JNT2nU3-80" edge="1">
          <mxGeometry width="50" height="50" relative="1" as="geometry">
            <mxPoint x="1105" y="1710" as="sourcePoint" />
            <mxPoint x="1246" y="1580" as="targetPoint" />
          </mxGeometry>
        </mxCell>
        <mxCell id="iJmK3isDiLZy_JNT2nU3-85" value="" style="endArrow=classic;html=1;rounded=0;" parent="1" edge="1">
          <mxGeometry width="50" height="50" relative="1" as="geometry">
            <mxPoint x="1265" y="1710" as="sourcePoint" />
            <mxPoint x="1265" y="1710" as="targetPoint" />
          </mxGeometry>
        </mxCell>
        <mxCell id="iJmK3isDiLZy_JNT2nU3-86" value="" style="endArrow=classic;html=1;rounded=0;" parent="1" edge="1">
          <mxGeometry width="50" height="50" relative="1" as="geometry">
            <mxPoint x="1240" y="1610" as="sourcePoint" />
            <mxPoint x="1205" y="1682.5" as="targetPoint" />
          </mxGeometry>
        </mxCell>
        <mxCell id="iJmK3isDiLZy_JNT2nU3-88" value="" style="endArrow=classic;html=1;rounded=0;" parent="1" edge="1">
          <mxGeometry width="50" height="50" relative="1" as="geometry">
            <mxPoint x="1210" y="1560" as="sourcePoint" />
            <mxPoint x="1125" y="1560" as="targetPoint" />
            <Array as="points">
              <mxPoint x="1155" y="1560" />
            </Array>
          </mxGeometry>
        </mxCell>
        <mxCell id="iJmK3isDiLZy_JNT2nU3-89" value="2 startInterface()" style="text;html=1;align=center;verticalAlign=middle;resizable=0;points=[];autosize=1;strokeColor=none;fillColor=none;" parent="1" vertex="1">
          <mxGeometry x="1115" y="1560" width="110" height="30" as="geometry" />
        </mxCell>
        <mxCell id="iJmK3isDiLZy_JNT2nU3-90" value="" style="endArrow=classic;html=1;rounded=0;" parent="1" edge="1">
          <mxGeometry width="50" height="50" relative="1" as="geometry">
            <mxPoint x="895" y="1540" as="sourcePoint" />
            <mxPoint x="980" y="1540" as="targetPoint" />
            <Array as="points">
              <mxPoint x="925" y="1540" />
            </Array>
          </mxGeometry>
        </mxCell>
        <mxCell id="iJmK3isDiLZy_JNT2nU3-91" value="3 apply()" style="text;html=1;align=center;verticalAlign=middle;resizable=0;points=[];autosize=1;strokeColor=none;fillColor=none;" parent="1" vertex="1">
          <mxGeometry x="905" y="1510" width="70" height="30" as="geometry" />
        </mxCell>
        <mxCell id="iJmK3isDiLZy_JNT2nU3-92" value="3.1 applyCompany()" style="text;html=1;align=center;verticalAlign=middle;resizable=0;points=[];autosize=1;strokeColor=none;fillColor=none;" parent="1" vertex="1">
          <mxGeometry x="1110" y="1500" width="130" height="30" as="geometry" />
        </mxCell>
        <mxCell id="iJmK3isDiLZy_JNT2nU3-93" value="" style="endArrow=classic;html=1;rounded=0;" parent="1" edge="1">
          <mxGeometry width="50" height="50" relative="1" as="geometry">
            <mxPoint x="1125" y="1535" as="sourcePoint" />
            <mxPoint x="1210" y="1535" as="targetPoint" />
            <Array as="points">
              <mxPoint x="1155" y="1535" />
            </Array>
          </mxGeometry>
        </mxCell>
        <mxCell id="iJmK3isDiLZy_JNT2nU3-94" value="1 getRecruitmentDetail()" style="text;html=1;align=center;verticalAlign=middle;resizable=0;points=[];autosize=1;strokeColor=none;fillColor=none;" parent="1" vertex="1">
          <mxGeometry x="1085" y="1612.5" width="150" height="30" as="geometry" />
        </mxCell>
        <mxCell id="bMXv3zJ_VvIDhunv8NQr-4" value="2.1.1 *[For work == input &amp;amp;&amp;amp; currentTime &amp;lt; deadLine]:&lt;br&gt;&amp;nbsp;getRecruitment()" style="text;html=1;align=center;verticalAlign=middle;resizable=0;points=[];autosize=1;strokeColor=none;fillColor=none;" parent="1" vertex="1">
          <mxGeometry x="930" y="690" width="310" height="40" as="geometry" />
        </mxCell>
        <mxCell id="bMXv3zJ_VvIDhunv8NQr-5" value="newApply:Apply&amp;nbsp;" style="html=1;whiteSpace=wrap;" parent="1" vertex="1">
          <mxGeometry x="1370" y="1720" width="110" height="50" as="geometry" />
        </mxCell>
        <mxCell id="bMXv3zJ_VvIDhunv8NQr-6" value="" style="endArrow=none;html=1;rounded=0;exitX=0;exitY=0.5;exitDx=0;exitDy=0;" parent="1" source="bMXv3zJ_VvIDhunv8NQr-5" target="iJmK3isDiLZy_JNT2nU3-83" edge="1">
          <mxGeometry width="50" height="50" relative="1" as="geometry">
            <mxPoint x="1215" y="1730" as="sourcePoint" />
            <mxPoint x="1290" y="1590" as="targetPoint" />
          </mxGeometry>
        </mxCell>
        <mxCell id="bMXv3zJ_VvIDhunv8NQr-7" value="3.1.1 addNewApply()" style="text;html=1;align=center;verticalAlign=middle;resizable=0;points=[];autosize=1;strokeColor=none;fillColor=none;" parent="1" vertex="1">
          <mxGeometry x="1080" y="1642.5" width="140" height="30" as="geometry" />
        </mxCell>
        <mxCell id="bMXv3zJ_VvIDhunv8NQr-8" value="" style="endArrow=classic;html=1;rounded=0;" parent="1" edge="1">
          <mxGeometry width="50" height="50" relative="1" as="geometry">
            <mxPoint x="1280" y="1730" as="sourcePoint" />
            <mxPoint x="1350" y="1730" as="targetPoint" />
          </mxGeometry>
        </mxCell>
        <mxCell id="bMXv3zJ_VvIDhunv8NQr-9" value="3.1.1.1 Apply()" style="text;html=1;align=center;verticalAlign=middle;resizable=0;points=[];autosize=1;strokeColor=none;fillColor=none;" parent="1" vertex="1">
          <mxGeometry x="1270" y="1690" width="100" height="30" as="geometry" />
        </mxCell>
      </root>
    </mxGraphModel>
  </diagram>
</mxfile>
